<svg xmlns="http://www.w3.org/2000/svg" xmlns:xlink="http://www.w3.org/1999/xlink" width="170" zoomAndPan="magnify" viewBox="0 0 127.5 31.5" height="42" preserveAspectRatio="xMidYMid meet" version="1.0"><defs><clipPath id="9940e1331a"><path d="M 3.117188 1.1875 L 30 1.1875 L 30 30.210938 L 3.117188 30.210938 Z M 3.117188 1.1875 " clip-rule="nonzero"/></clipPath></defs><g clip-path="url(#9940e1331a)"><path fill="#000000" d="M 26.238281 30.03125 L 7.1875 30.03125 C 6.703125 30.03125 6.238281 29.9375 5.789062 29.75 C 5.34375 29.566406 4.949219 29.300781 4.605469 28.960938 C 4.265625 28.617188 4 28.222656 3.8125 27.777344 C 3.628906 27.332031 3.535156 26.867188 3.53125 26.382812 L 3.53125 5.417969 C 3.535156 4.9375 3.628906 4.472656 3.8125 4.027344 C 4 3.582031 4.265625 3.1875 4.605469 2.847656 C 4.949219 2.503906 5.34375 2.242188 5.789062 2.058594 C 6.238281 1.871094 6.703125 1.78125 7.1875 1.777344 L 26.238281 1.777344 C 26.722656 1.78125 27.1875 1.871094 27.636719 2.058594 C 28.082031 2.242188 28.476562 2.503906 28.820312 2.847656 C 29.160156 3.1875 29.425781 3.582031 29.613281 4.027344 C 29.796875 4.472656 29.890625 4.9375 29.894531 5.417969 L 29.894531 26.382812 C 29.890625 26.867188 29.796875 27.332031 29.613281 27.777344 C 29.425781 28.222656 29.164062 28.617188 28.820312 28.960938 C 28.476562 29.300781 28.082031 29.566406 27.636719 29.75 C 27.1875 29.9375 26.722656 30.03125 26.238281 30.03125 Z M 26.238281 30.03125 " fill-opacity="1" fill-rule="nonzero"/></g><path fill="#34534c" d="M 26.640625 15.871094 C 26.640625 15.191406 26.574219 14.515625 26.441406 13.847656 C 26.304688 13.183594 26.109375 12.535156 25.847656 11.90625 C 25.585938 11.28125 25.265625 10.683594 24.886719 10.117188 C 24.507812 9.550781 24.078125 9.03125 23.597656 8.550781 C 23.117188 8.070312 22.589844 7.640625 22.023438 7.261719 C 21.457031 6.886719 20.859375 6.566406 20.230469 6.304688 C 19.601562 6.046875 18.953125 5.851562 18.285156 5.71875 C 17.617188 5.585938 16.941406 5.519531 16.261719 5.519531 C 15.578125 5.519531 14.902344 5.585938 14.234375 5.71875 C 13.566406 5.851562 12.917969 6.046875 12.289062 6.308594 C 11.660156 6.566406 11.0625 6.886719 10.496094 7.265625 C 9.929688 7.644531 9.40625 8.070312 8.925781 8.550781 C 8.441406 9.035156 8.011719 9.554688 7.632812 10.121094 C 7.253906 10.6875 6.9375 11.285156 6.675781 11.910156 C 6.414062 12.539062 6.21875 13.1875 6.085938 13.855469 C 5.953125 14.519531 5.886719 15.195312 5.882812 15.875 C 5.882812 16.554688 5.949219 17.226562 6.082031 17.894531 C 6.214844 18.5625 6.414062 19.207031 6.671875 19.835938 C 6.933594 20.464844 7.253906 21.0625 7.632812 21.628906 C 8.007812 22.191406 8.4375 22.714844 8.921875 23.199219 C 9.402344 23.679688 9.925781 24.109375 10.492188 24.484375 C 11.058594 24.863281 11.65625 25.183594 12.285156 25.445312 C 12.914062 25.703125 13.5625 25.902344 14.230469 26.035156 C 14.898438 26.167969 15.574219 26.234375 16.253906 26.234375 L 17.265625 26.234375 L 17.265625 21.859375 L 16.347656 21.859375 C 15.882812 21.855469 15.425781 21.800781 14.972656 21.695312 C 14.519531 21.585938 14.085938 21.429688 13.667969 21.222656 C 13.253906 21.011719 12.867188 20.761719 12.507812 20.464844 C 12.152344 20.164062 11.832031 19.832031 11.550781 19.460938 C 11.273438 19.089844 11.039062 18.691406 10.851562 18.269531 C 10.664062 17.84375 10.523438 17.402344 10.4375 16.945312 C 10.355469 16.488281 10.320312 16.03125 10.339844 15.566406 C 10.363281 15.101562 10.4375 14.644531 10.5625 14.199219 C 10.765625 13.515625 11.085938 12.890625 11.515625 12.324219 C 11.945312 11.753906 12.460938 11.277344 13.0625 10.894531 C 13.664062 10.511719 14.3125 10.242188 15.007812 10.09375 C 15.707031 9.941406 16.410156 9.917969 17.117188 10.019531 C 17.824219 10.121094 18.488281 10.339844 19.117188 10.679688 C 19.742188 11.019531 20.292969 11.460938 20.761719 11.996094 C 21.230469 12.535156 21.589844 13.136719 21.84375 13.800781 C 22.09375 14.46875 22.222656 15.15625 22.226562 15.871094 L 22.226562 20.1875 C 22.871094 19.660156 23.609375 19.398438 24.445312 19.394531 C 25.285156 19.394531 26.035156 19.660156 26.691406 20.1875 C 26.691406 19.03125 26.640625 16.605469 26.640625 15.871094 Z M 26.640625 15.871094 " fill-opacity="1" fill-rule="nonzero"/><path fill="#ce9140" d="M 27.949219 24.105469 C 27.949219 24.570312 27.859375 25.015625 27.675781 25.441406 C 27.503906 25.871094 27.25 26.25 26.917969 26.578125 C 26.589844 26.90625 26.210938 27.15625 25.78125 27.332031 C 24.890625 27.699219 24 27.699219 23.105469 27.332031 C 22.210938 26.964844 21.582031 26.335938 21.210938 25.441406 C 21.039062 25.011719 20.960938 24.570312 20.96875 24.105469 C 20.964844 23.640625 21.054688 23.195312 21.234375 22.765625 C 21.414062 22.335938 21.664062 21.960938 21.992188 21.628906 C 22.679688 20.957031 23.503906 20.617188 24.464844 20.609375 C 24.929688 20.609375 25.375 20.699219 25.804688 20.878906 C 26.453125 21.15625 26.972656 21.585938 27.363281 22.171875 C 27.753906 22.757812 27.949219 23.402344 27.949219 24.105469 Z M 27.949219 24.105469 " fill-opacity="1" fill-rule="nonzero"/><path fill="#f96139" d="M 27.949219 24.105469 C 27.949219 24.570312 27.859375 25.015625 27.675781 25.441406 C 27.503906 25.871094 27.25 26.25 26.917969 26.578125 C 26.589844 26.90625 26.210938 27.15625 25.78125 27.332031 C 24.890625 27.699219 24 27.699219 23.105469 27.332031 C 22.210938 26.964844 21.582031 26.335938 21.210938 25.441406 C 21.039062 25.011719 20.960938 24.570312 20.96875 24.105469 C 20.964844 23.640625 21.054688 23.195312 21.234375 22.765625 C 21.414062 22.335938 21.664062 21.960938 21.992188 21.628906 C 22.679688 20.957031 23.503906 20.617188 24.464844 20.609375 C 24.929688 20.609375 25.375 20.699219 25.804688 20.878906 C 26.453125 21.15625 26.972656 21.585938 27.363281 22.171875 C 27.753906 22.757812 27.949219 23.402344 27.949219 24.105469 Z M 27.949219 24.105469 " fill-opacity="1" fill-rule="nonzero"/><path fill="#ffffff" d="M 26.640625 15.871094 C 26.640625 15.191406 26.574219 14.515625 26.441406 13.847656 C 26.304688 13.183594 26.109375 12.535156 25.847656 11.90625 C 25.585938 11.28125 25.265625 10.683594 24.886719 10.117188 C 24.507812 9.550781 24.078125 9.03125 23.597656 8.550781 C 23.117188 8.070312 22.589844 7.640625 22.023438 7.261719 C 21.457031 6.886719 20.859375 6.566406 20.230469 6.304688 C 19.601562 6.046875 18.953125 5.851562 18.285156 5.71875 C 17.617188 5.585938 16.941406 5.519531 16.261719 5.519531 C 15.578125 5.519531 14.902344 5.585938 14.234375 5.71875 C 13.566406 5.851562 12.917969 6.046875 12.289062 6.308594 C 11.660156 6.566406 11.0625 6.886719 10.496094 7.265625 C 9.929688 7.644531 9.40625 8.070312 8.925781 8.550781 C 8.441406 9.035156 8.011719 9.554688 7.632812 10.121094 C 7.253906 10.6875 6.9375 11.285156 6.675781 11.910156 C 6.414062 12.539062 6.21875 13.1875 6.085938 13.855469 C 5.953125 14.519531 5.886719 15.195312 5.882812 15.875 C 5.882812 16.554688 5.949219 17.226562 6.082031 17.894531 C 6.214844 18.5625 6.414062 19.207031 6.671875 19.835938 C 6.933594 20.464844 7.253906 21.0625 7.632812 21.628906 C 8.007812 22.191406 8.4375 22.714844 8.921875 23.199219 C 9.402344 23.679688 9.925781 24.109375 10.492188 24.484375 C 11.058594 24.863281 11.65625 25.183594 12.285156 25.445312 C 12.914062 25.703125 13.5625 25.902344 14.230469 26.035156 C 14.898438 26.167969 15.574219 26.234375 16.253906 26.234375 L 17.265625 26.234375 L 17.265625 21.859375 L 16.347656 21.859375 C 15.882812 21.855469 15.425781 21.800781 14.972656 21.695312 C 14.519531 21.585938 14.085938 21.429688 13.667969 21.222656 C 13.253906 21.011719 12.867188 20.761719 12.507812 20.464844 C 12.152344 20.164062 11.832031 19.832031 11.550781 19.460938 C 11.273438 19.089844 11.039062 18.691406 10.851562 18.269531 C 10.664062 17.84375 10.523438 17.402344 10.4375 16.945312 C 10.355469 16.488281 10.320312 16.03125 10.339844 15.566406 C 10.363281 15.101562 10.4375 14.644531 10.5625 14.199219 C 10.765625 13.515625 11.085938 12.890625 11.515625 12.324219 C 11.945312 11.753906 12.460938 11.277344 13.0625 10.894531 C 13.664062 10.511719 14.3125 10.242188 15.007812 10.09375 C 15.707031 9.941406 16.410156 9.917969 17.117188 10.019531 C 17.824219 10.121094 18.488281 10.339844 19.117188 10.679688 C 19.742188 11.019531 20.292969 11.460938 20.761719 11.996094 C 21.230469 12.535156 21.589844 13.136719 21.84375 13.800781 C 22.09375 14.46875 22.222656 15.15625 22.226562 15.871094 L 22.226562 20.1875 C 22.871094 19.660156 23.609375 19.398438 24.445312 19.394531 C 25.285156 19.394531 26.035156 19.660156 26.691406 20.1875 C 26.691406 19.03125 26.640625 16.605469 26.640625 15.871094 Z M 26.640625 15.871094 " fill-opacity="1" fill-rule="nonzero"/><path fill="#ffffff" d="M 42.667969 20.507812 L 42.667969 18.28125 C 42.519531 18.644531 42.300781 18.960938 42.015625 19.230469 C 41.582031 19.695312 41.078125 20.066406 40.5 20.339844 C 39.78125 20.6875 39.019531 20.851562 38.21875 20.832031 C 37.191406 20.84375 36.222656 20.605469 35.316406 20.117188 C 34.414062 19.640625 33.699219 18.964844 33.171875 18.089844 C 32.628906 17.125 32.375 16.089844 32.410156 14.984375 C 32.382812 13.875 32.644531 12.839844 33.199219 11.878906 C 33.722656 11 34.4375 10.324219 35.34375 9.84375 C 36.25 9.351562 37.21875 9.113281 38.25 9.132812 C 39.035156 9.113281 39.789062 9.261719 40.507812 9.582031 C 41.078125 9.832031 41.585938 10.179688 42.023438 10.621094 C 42.324219 10.902344 42.542969 11.234375 42.683594 11.621094 L 42.683594 9.480469 L 44.714844 9.480469 L 44.714844 20.546875 Z M 34.480469 14.984375 C 34.457031 15.75 34.640625 16.460938 35.027344 17.125 C 35.414062 17.785156 35.945312 18.292969 36.625 18.652344 C 37.25 18.992188 37.917969 19.160156 38.628906 19.160156 C 39.359375 19.175781 40.042969 19 40.679688 18.640625 C 41.292969 18.296875 41.769531 17.820312 42.109375 17.210938 C 42.480469 16.523438 42.652344 15.792969 42.632812 15.011719 C 42.652344 14.230469 42.480469 13.496094 42.109375 12.808594 C 41.769531 12.1875 41.292969 11.699219 40.679688 11.34375 C 40.042969 10.984375 39.359375 10.808594 38.628906 10.824219 C 37.917969 10.820312 37.25 10.992188 36.625 11.328125 C 35.988281 11.671875 35.472656 12.148438 35.085938 12.757812 C 34.664062 13.441406 34.460938 14.183594 34.480469 14.984375 Z M 34.480469 14.984375 " fill-opacity="1" fill-rule="nonzero"/><path fill="#ffffff" d="M 48.148438 26.113281 L 46.085938 26.113281 L 46.085938 9.445312 L 48.234375 9.445312 L 48.234375 11.585938 C 48.378906 11.179688 48.617188 10.839844 48.949219 10.566406 C 49.410156 10.152344 49.925781 9.832031 50.5 9.59375 C 51.242188 9.28125 52.011719 9.132812 52.816406 9.152344 C 53.835938 9.132812 54.789062 9.371094 55.679688 9.867188 C 56.535156 10.355469 57.195312 11.035156 57.667969 11.902344 C 58.175781 12.875 58.414062 13.910156 58.382812 15.003906 C 58.417969 16.105469 58.179688 17.140625 57.667969 18.109375 C 57.1875 18.976562 56.515625 19.652344 55.648438 20.136719 C 54.757812 20.628906 53.804688 20.867188 52.789062 20.851562 C 51.964844 20.867188 51.179688 20.707031 50.429688 20.367188 C 49.832031 20.101562 49.304688 19.738281 48.847656 19.273438 C 48.53125 19 48.296875 18.671875 48.148438 18.28125 Z M 56.351562 14.984375 C 56.371094 14.1875 56.183594 13.445312 55.785156 12.757812 C 55.433594 12.15625 54.957031 11.679688 54.355469 11.328125 C 53.75 10.988281 53.101562 10.820312 52.410156 10.824219 C 51.664062 10.8125 50.960938 10.988281 50.308594 11.34375 C 49.671875 11.695312 49.167969 12.183594 48.796875 12.808594 C 48.40625 13.492188 48.21875 14.226562 48.238281 15.011719 C 48.21875 15.796875 48.40625 16.53125 48.796875 17.210938 C 49.171875 17.824219 49.671875 18.300781 50.308594 18.640625 C 50.960938 18.996094 51.664062 19.167969 52.410156 19.160156 C 53.113281 19.164062 53.769531 18.992188 54.375 18.640625 C 54.984375 18.292969 55.464844 17.8125 55.8125 17.203125 C 56.199219 16.515625 56.378906 15.773438 56.351562 14.984375 Z M 56.351562 14.984375 " fill-opacity="1" fill-rule="nonzero"/><path fill="#ffffff" d="M 61.085938 26.113281 L 58.996094 26.113281 L 58.996094 9.445312 L 61.140625 9.445312 L 61.140625 11.585938 C 61.285156 11.179688 61.523438 10.839844 61.859375 10.566406 C 62.320312 10.148438 62.839844 9.828125 63.417969 9.59375 C 64.257812 9.257812 65.132812 9.113281 66.035156 9.160156 C 66.941406 9.210938 67.792969 9.449219 68.59375 9.875 C 69.453125 10.359375 70.117188 11.039062 70.582031 11.90625 C 71.09375 12.878906 71.332031 13.914062 71.296875 15.011719 C 71.324219 16.113281 71.074219 17.148438 70.546875 18.117188 C 70.066406 18.984375 69.394531 19.660156 68.53125 20.144531 C 67.640625 20.636719 66.6875 20.875 65.667969 20.859375 C 64.847656 20.875 64.058594 20.714844 63.308594 20.375 C 62.710938 20.101562 62.1875 19.726562 61.734375 19.253906 C 61.441406 18.980469 61.226562 18.65625 61.085938 18.28125 Z M 69.261719 14.984375 C 69.28125 14.191406 69.09375 13.449219 68.703125 12.757812 C 68.355469 12.148438 67.878906 11.667969 67.273438 11.320312 C 66.667969 10.96875 66.011719 10.792969 65.3125 10.792969 C 64.566406 10.785156 63.867188 10.957031 63.214844 11.316406 C 62.578125 11.664062 62.074219 12.152344 61.707031 12.777344 C 61.316406 13.460938 61.128906 14.199219 61.148438 14.984375 C 61.128906 15.769531 61.316406 16.503906 61.707031 17.183594 C 62.078125 17.800781 62.578125 18.277344 63.214844 18.609375 C 63.867188 18.976562 64.566406 19.160156 65.3125 19.160156 C 66.007812 19.164062 66.660156 18.996094 67.265625 18.652344 C 67.871094 18.304688 68.347656 17.828125 68.695312 17.226562 C 69.09375 16.53125 69.28125 15.785156 69.261719 14.984375 Z M 69.261719 14.984375 " fill-opacity="1" fill-rule="nonzero"/><path fill="#ffffff" d="M 78.59375 18.160156 C 79.140625 18.183594 79.667969 18.082031 80.167969 17.855469 C 80.449219 17.730469 80.714844 17.574219 80.960938 17.390625 L 82.503906 19.53125 C 82.28125 19.695312 82.042969 19.835938 81.789062 19.953125 C 81.351562 20.160156 80.894531 20.316406 80.425781 20.429688 C 79.800781 20.574219 79.167969 20.644531 78.527344 20.636719 C 77.402344 20.648438 76.332031 20.410156 75.316406 19.925781 C 74.367188 19.464844 73.609375 18.796875 73.035156 17.910156 C 72.441406 16.945312 72.160156 15.894531 72.191406 14.761719 C 72.160156 13.628906 72.441406 12.574219 73.035156 11.609375 C 73.605469 10.71875 74.371094 10.046875 75.324219 9.59375 C 76.339844 9.109375 77.410156 8.871094 78.535156 8.882812 C 79.167969 8.871094 79.789062 8.945312 80.402344 9.101562 C 80.871094 9.222656 81.324219 9.390625 81.761719 9.601562 C 82.011719 9.726562 82.253906 9.871094 82.476562 10.039062 L 80.902344 12.222656 C 80.824219 12.15625 80.695312 12.058594 80.503906 11.921875 C 80.261719 11.765625 80.003906 11.644531 79.730469 11.550781 C 79.355469 11.433594 78.972656 11.378906 78.578125 11.386719 C 78.023438 11.386719 77.5 11.523438 77.011719 11.792969 C 76.507812 12.074219 76.105469 12.464844 75.804688 12.957031 C 75.472656 13.5 75.316406 14.089844 75.332031 14.726562 C 75.316406 15.367188 75.472656 15.957031 75.804688 16.503906 C 76.101562 17.003906 76.503906 17.390625 77.011719 17.667969 C 77.496094 17.976562 78.023438 18.140625 78.59375 18.160156 Z M 78.59375 18.160156 " fill-opacity="1" fill-rule="nonzero"/><path fill="#ffffff" d="M 88.199219 20.628906 C 87.042969 20.65625 85.949219 20.402344 84.921875 19.875 C 83.984375 19.390625 83.234375 18.703125 82.675781 17.804688 C 82.117188 16.886719 81.847656 15.886719 81.863281 14.8125 C 81.847656 13.734375 82.117188 12.730469 82.675781 11.808594 C 83.230469 10.890625 83.976562 10.175781 84.921875 9.667969 C 85.953125 9.140625 87.042969 8.894531 88.199219 8.925781 C 89.355469 8.898438 90.445312 9.15625 91.46875 9.695312 C 91.929688 9.941406 92.347656 10.25 92.726562 10.613281 C 93.105469 10.972656 93.425781 11.382812 93.691406 11.832031 C 93.957031 12.285156 94.15625 12.761719 94.289062 13.269531 C 94.421875 13.773438 94.488281 14.289062 94.476562 14.8125 C 94.492188 15.886719 94.226562 16.882812 93.675781 17.804688 C 93.132812 18.699219 92.394531 19.386719 91.46875 19.875 C 90.441406 20.402344 89.351562 20.65625 88.199219 20.628906 Z M 88.199219 18.019531 C 88.796875 18.03125 89.355469 17.890625 89.871094 17.597656 C 90.347656 17.320312 90.710938 16.941406 90.964844 16.453125 C 91.230469 15.933594 91.359375 15.378906 91.359375 14.796875 C 91.359375 14.210938 91.230469 13.65625 90.964844 13.136719 C 90.710938 12.644531 90.347656 12.253906 89.871094 11.964844 C 89.351562 11.679688 88.796875 11.535156 88.203125 11.535156 C 87.609375 11.535156 87.050781 11.679688 86.53125 11.964844 C 86.035156 12.253906 85.652344 12.65625 85.382812 13.164062 C 85.117188 13.6875 84.988281 14.238281 84.988281 14.824219 C 84.988281 15.40625 85.117188 15.960938 85.382812 16.484375 C 85.644531 16.96875 86.015625 17.351562 86.496094 17.625 C 87.027344 17.914062 87.59375 18.046875 88.199219 18.019531 Z M 88.199219 18.019531 " fill-opacity="1" fill-rule="nonzero"/><path fill="#ffffff" d="M 99.914062 20.628906 C 98.890625 20.644531 97.9375 20.394531 97.054688 19.875 C 96.203125 19.367188 95.546875 18.675781 95.078125 17.804688 C 94.582031 16.859375 94.34375 15.851562 94.363281 14.785156 C 94.34375 13.714844 94.582031 12.710938 95.078125 11.765625 C 95.308594 11.324219 95.597656 10.921875 95.941406 10.5625 C 96.285156 10.199219 96.671875 9.894531 97.105469 9.640625 C 97.535156 9.386719 97.992188 9.199219 98.476562 9.074219 C 98.960938 8.949219 99.449219 8.894531 99.949219 8.910156 C 100.691406 8.894531 101.40625 9.023438 102.09375 9.296875 C 102.644531 9.503906 103.140625 9.800781 103.582031 10.1875 C 103.890625 10.429688 104.109375 10.734375 104.242188 11.101562 L 104.242188 1.742188 L 107.507812 1.742188 L 107.507812 20.300781 L 104.25 20.300781 L 104.25 18.304688 C 104.046875 18.699219 103.773438 19.039062 103.425781 19.316406 C 102.972656 19.707031 102.464844 20.015625 101.910156 20.238281 C 101.273438 20.507812 100.605469 20.636719 99.914062 20.628906 Z M 100.824219 18.160156 C 101.429688 18.167969 102 18.027344 102.53125 17.734375 C 103.050781 17.453125 103.457031 17.0625 103.753906 16.554688 C 104.066406 16.019531 104.21875 15.441406 104.207031 14.820312 C 104.21875 14.199219 104.066406 13.617188 103.753906 13.078125 C 103.449219 12.558594 103.03125 12.148438 102.503906 11.859375 C 101.972656 11.5625 101.402344 11.421875 100.792969 11.429688 C 100.214844 11.421875 99.671875 11.5625 99.171875 11.847656 C 98.667969 12.132812 98.269531 12.527344 97.984375 13.027344 C 97.679688 13.574219 97.53125 14.160156 97.546875 14.785156 C 97.53125 15.40625 97.675781 15.992188 97.984375 16.535156 C 98.265625 17.03125 98.660156 17.421875 99.164062 17.703125 C 99.675781 18.007812 100.226562 18.160156 100.824219 18.160156 Z M 100.824219 18.160156 " fill-opacity="1" fill-rule="nonzero"/><path fill="#ffffff" d="M 109.933594 6.132812 C 109.390625 6.144531 108.925781 5.960938 108.539062 5.582031 C 108.152344 5.230469 107.957031 4.789062 107.960938 4.261719 C 107.957031 3.730469 108.152344 3.28125 108.546875 2.921875 C 108.929688 2.542969 109.394531 2.355469 109.933594 2.363281 C 110.285156 2.359375 110.617188 2.4375 110.925781 2.605469 C 111.234375 2.769531 111.484375 3.003906 111.671875 3.300781 C 111.785156 3.476562 111.859375 3.671875 111.90625 3.875 C 111.949219 4.082031 111.957031 4.289062 111.925781 4.496094 C 111.898438 4.707031 111.835938 4.902344 111.738281 5.089844 C 111.640625 5.277344 111.511719 5.441406 111.359375 5.582031 C 110.957031 5.960938 110.484375 6.144531 109.933594 6.132812 Z M 108.261719 20.300781 L 108.261719 9.246094 L 111.535156 9.246094 L 111.535156 20.300781 Z M 108.261719 20.300781 " fill-opacity="1" fill-rule="nonzero"/><path fill="#ffffff" d="M 115.21875 15.484375 C 115.230469 16.015625 115.375 16.511719 115.648438 16.96875 C 115.933594 17.421875 116.320312 17.761719 116.808594 17.984375 C 117.40625 18.25 118.03125 18.375 118.6875 18.355469 C 119.261719 18.367188 119.824219 18.285156 120.371094 18.109375 C 120.796875 17.972656 121.191406 17.777344 121.5625 17.527344 C 121.832031 17.34375 122.070312 17.128906 122.277344 16.882812 L 123.710938 18.773438 C 123.398438 19.148438 123.039062 19.464844 122.628906 19.722656 C 122.113281 20.035156 121.558594 20.253906 120.96875 20.386719 C 120.15625 20.566406 119.328125 20.648438 118.496094 20.628906 C 117.328125 20.664062 116.214844 20.425781 115.164062 19.917969 C 114.21875 19.441406 113.484375 18.75 112.953125 17.839844 C 112.394531 16.855469 112.128906 15.796875 112.160156 14.664062 C 112.144531 13.628906 112.382812 12.65625 112.875 11.742188 C 113.367188 10.855469 114.0625 10.171875 114.953125 9.6875 C 115.988281 9.167969 117.082031 8.929688 118.238281 8.972656 C 119.335938 8.945312 120.378906 9.167969 121.371094 9.636719 C 122.246094 10.078125 122.929688 10.722656 123.417969 11.574219 C 123.929688 12.535156 124.167969 13.566406 124.132812 14.65625 C 124.132812 14.726562 124.132812 14.878906 124.132812 15.097656 C 124.128906 15.246094 124.117188 15.390625 124.09375 15.535156 Z M 121.046875 13.390625 C 121.023438 13.050781 120.925781 12.726562 120.753906 12.429688 C 120.542969 12.046875 120.25 11.742188 119.875 11.515625 C 119.382812 11.230469 118.851562 11.101562 118.28125 11.128906 C 117.699219 11.105469 117.148438 11.226562 116.628906 11.492188 C 116.230469 11.707031 115.914062 12.003906 115.675781 12.386719 C 115.476562 12.695312 115.355469 13.03125 115.304688 13.390625 Z M 121.046875 13.390625 " fill-opacity="1" fill-rule="nonzero"/><path fill="#ffffff" d="M 71.363281 29.027344 L 70.761719 29.027344 L 70.046875 26.476562 L 70.140625 26.476562 L 69.425781 29.027344 L 68.816406 29.027344 L 68.101562 25.964844 L 68.644531 25.964844 L 69.160156 28.46875 L 69.875 25.964844 L 70.320312 25.964844 L 71.035156 28.46875 L 71.542969 25.964844 L 72.09375 25.964844 Z M 71.363281 29.027344 " fill-opacity="1" fill-rule="nonzero"/><path fill="#ffffff" d="M 73.664062 25.964844 L 75.710938 25.964844 L 75.710938 26.355469 L 74.144531 26.355469 L 74.144531 27.304688 L 75.675781 27.304688 L 75.675781 27.675781 L 74.144531 27.675781 L 74.144531 28.640625 L 75.710938 28.640625 L 75.710938 29.027344 L 73.664062 29.027344 Z M 73.664062 25.964844 " fill-opacity="1" fill-rule="nonzero"/><path fill="#ffffff" d="M 79.773438 25.964844 L 80.753906 25.964844 C 80.929688 25.960938 81.105469 25.984375 81.277344 26.035156 C 81.429688 26.070312 81.566406 26.148438 81.675781 26.261719 C 81.785156 26.390625 81.835938 26.539062 81.828125 26.707031 C 81.832031 26.828125 81.804688 26.945312 81.746094 27.054688 C 81.695312 27.152344 81.625 27.234375 81.539062 27.304688 C 81.46875 27.367188 81.382812 27.40625 81.289062 27.417969 C 81.367188 27.429688 81.441406 27.449219 81.511719 27.476562 C 81.59375 27.511719 81.671875 27.558594 81.742188 27.621094 C 81.820312 27.679688 81.878906 27.757812 81.917969 27.847656 C 81.972656 27.945312 81.996094 28.050781 81.992188 28.160156 C 81.996094 28.324219 81.957031 28.472656 81.875 28.613281 C 81.792969 28.75 81.675781 28.851562 81.527344 28.917969 C 81.339844 28.996094 81.140625 29.03125 80.9375 29.027344 L 79.773438 29.027344 Z M 80.253906 27.289062 L 80.796875 27.289062 C 80.90625 27.292969 81.011719 27.265625 81.109375 27.21875 C 81.191406 27.171875 81.25 27.109375 81.289062 27.027344 C 81.332031 26.949219 81.355469 26.867188 81.355469 26.777344 C 81.367188 26.625 81.3125 26.503906 81.183594 26.421875 C 81.042969 26.347656 80.890625 26.3125 80.730469 26.320312 L 80.253906 26.320312 Z M 80.253906 28.667969 L 80.875 28.667969 C 81.003906 28.675781 81.128906 28.652344 81.246094 28.597656 C 81.332031 28.554688 81.394531 28.492188 81.433594 28.40625 C 81.472656 28.320312 81.492188 28.234375 81.488281 28.140625 C 81.492188 27.992188 81.4375 27.871094 81.324219 27.777344 C 81.183594 27.671875 81.023438 27.625 80.847656 27.640625 L 80.253906 27.640625 Z M 80.253906 28.667969 " fill-opacity="1" fill-rule="nonzero"/><path fill="#ffffff" d="M 85.703125 25.964844 L 86.1875 25.964844 L 86.1875 27.867188 C 86.195312 28.101562 86.136719 28.320312 86.015625 28.519531 C 85.902344 28.703125 85.75 28.84375 85.550781 28.941406 C 85.324219 29.042969 85.085938 29.09375 84.835938 29.082031 C 84.601562 29.085938 84.375 29.039062 84.15625 28.941406 C 83.960938 28.84375 83.804688 28.703125 83.691406 28.519531 C 83.574219 28.320312 83.515625 28.101562 83.519531 27.867188 L 83.519531 25.964844 L 84 25.964844 L 84 27.839844 C 83.996094 28.003906 84.03125 28.15625 84.109375 28.296875 C 84.179688 28.421875 84.277344 28.519531 84.40625 28.582031 C 84.542969 28.652344 84.683594 28.6875 84.835938 28.683594 C 84.988281 28.6875 85.132812 28.65625 85.265625 28.582031 C 85.390625 28.515625 85.488281 28.421875 85.558594 28.296875 C 85.636719 28.15625 85.671875 28.003906 85.667969 27.839844 Z M 85.703125 25.964844 " fill-opacity="1" fill-rule="nonzero"/><path fill="#ffffff" d="M 87.890625 25.964844 L 88.378906 25.964844 L 88.378906 29.027344 L 87.890625 29.027344 Z M 87.890625 25.964844 " fill-opacity="1" fill-rule="nonzero"/><path fill="#ffffff" d="M 90.128906 25.964844 L 90.609375 25.964844 L 90.609375 28.640625 L 91.9375 28.640625 L 91.9375 29.027344 L 90.128906 29.027344 Z M 90.128906 25.964844 " fill-opacity="1" fill-rule="nonzero"/><path fill="#ffffff" d="M 93.546875 25.964844 L 94.386719 25.964844 C 94.699219 25.953125 95 26.019531 95.28125 26.164062 C 95.515625 26.285156 95.691406 26.46875 95.808594 26.707031 C 95.929688 26.957031 95.984375 27.21875 95.980469 27.496094 C 95.984375 27.773438 95.925781 28.039062 95.808594 28.289062 C 95.691406 28.523438 95.515625 28.707031 95.285156 28.832031 C 95.003906 28.972656 94.703125 29.039062 94.386719 29.027344 L 93.546875 29.027344 Z M 94.027344 26.355469 L 94.027344 28.640625 L 94.34375 28.640625 C 94.570312 28.648438 94.78125 28.597656 94.980469 28.488281 C 95.144531 28.394531 95.269531 28.261719 95.351562 28.089844 C 95.433594 27.902344 95.476562 27.703125 95.472656 27.496094 C 95.476562 27.292969 95.4375 27.097656 95.359375 26.914062 C 95.277344 26.738281 95.152344 26.601562 94.984375 26.503906 C 94.785156 26.398438 94.570312 26.347656 94.34375 26.355469 Z M 94.027344 26.355469 " fill-opacity="1" fill-rule="nonzero"/><path fill="#ffffff" d="M 99.90625 25.964844 L 101.710938 25.964844 L 101.710938 26.355469 L 100.359375 26.355469 L 100.359375 27.296875 L 101.59375 27.296875 L 101.59375 27.683594 L 100.359375 27.683594 L 100.359375 29.027344 L 99.878906 29.027344 Z M 99.90625 25.964844 " fill-opacity="1" fill-rule="nonzero"/><path fill="#ffffff" d="M 105.433594 25.964844 L 105.921875 25.964844 L 105.921875 27.867188 C 105.925781 28.101562 105.871094 28.320312 105.75 28.519531 C 105.636719 28.703125 105.480469 28.84375 105.285156 28.941406 C 105.070312 29.039062 104.84375 29.085938 104.605469 29.082031 C 104.355469 29.089844 104.117188 29.042969 103.890625 28.941406 C 103.6875 28.839844 103.527344 28.691406 103.414062 28.5 C 103.296875 28.304688 103.246094 28.09375 103.253906 27.867188 L 103.253906 25.964844 L 103.734375 25.964844 L 103.734375 27.839844 C 103.726562 28.003906 103.765625 28.15625 103.847656 28.296875 C 103.917969 28.421875 104.015625 28.515625 104.140625 28.582031 C 104.277344 28.65625 104.421875 28.6875 104.578125 28.683594 C 104.730469 28.6875 104.871094 28.652344 105.007812 28.582031 C 105.132812 28.515625 105.230469 28.421875 105.300781 28.296875 C 105.375 28.15625 105.410156 28.003906 105.40625 27.839844 Z M 105.433594 25.964844 " fill-opacity="1" fill-rule="nonzero"/><path fill="#ffffff" d="M 108.28125 26.355469 L 107.375 26.355469 L 107.375 25.964844 L 109.65625 25.964844 L 109.65625 26.355469 L 108.746094 26.355469 L 108.746094 29.027344 L 108.261719 29.027344 Z M 108.28125 26.355469 " fill-opacity="1" fill-rule="nonzero"/><path fill="#ffffff" d="M 113.316406 25.964844 L 113.796875 25.964844 L 113.796875 27.867188 C 113.800781 28.101562 113.746094 28.316406 113.632812 28.519531 C 113.515625 28.699219 113.359375 28.839844 113.167969 28.941406 C 112.710938 29.140625 112.257812 29.140625 111.800781 28.941406 C 111.605469 28.84375 111.449219 28.703125 111.335938 28.519531 C 111.214844 28.320312 111.160156 28.101562 111.164062 27.867188 L 111.164062 25.964844 L 111.644531 25.964844 L 111.644531 27.839844 C 111.640625 28.003906 111.675781 28.15625 111.75 28.296875 C 111.824219 28.417969 111.925781 28.515625 112.050781 28.582031 C 112.183594 28.652344 112.328125 28.6875 112.480469 28.683594 C 112.632812 28.6875 112.777344 28.65625 112.910156 28.582031 C 113.035156 28.515625 113.136719 28.421875 113.210938 28.296875 C 113.285156 28.15625 113.320312 28.003906 113.316406 27.839844 Z M 113.316406 25.964844 " fill-opacity="1" fill-rule="nonzero"/><path fill="#ffffff" d="M 115.460938 25.964844 L 116.679688 25.964844 C 116.855469 25.960938 117.023438 25.996094 117.1875 26.070312 C 117.339844 26.136719 117.460938 26.238281 117.550781 26.378906 C 117.648438 26.523438 117.695312 26.679688 117.6875 26.855469 C 117.691406 27.023438 117.652344 27.179688 117.566406 27.328125 C 117.492188 27.445312 117.390625 27.539062 117.265625 27.605469 C 117.164062 27.664062 117.058594 27.699219 116.941406 27.710938 L 117.789062 29.027344 L 117.242188 29.027344 L 116.457031 27.742188 L 115.941406 27.742188 L 115.941406 29.027344 L 115.460938 29.027344 Z M 115.941406 27.390625 L 116.515625 27.390625 C 116.6875 27.398438 116.851562 27.355469 117 27.261719 C 117.140625 27.15625 117.207031 27.011719 117.195312 26.835938 C 117.207031 26.65625 117.144531 26.515625 117 26.414062 C 116.851562 26.320312 116.691406 26.277344 116.515625 26.285156 L 115.941406 26.285156 Z M 115.941406 27.390625 " fill-opacity="1" fill-rule="nonzero"/><path fill="#ffffff" d="M 119.402344 25.964844 L 121.441406 25.964844 L 121.441406 26.355469 L 119.875 26.355469 L 119.875 27.304688 L 121.414062 27.304688 L 121.414062 27.675781 L 119.875 27.675781 L 119.875 28.640625 L 121.441406 28.640625 L 121.441406 29.027344 L 119.402344 29.027344 Z M 119.402344 25.964844 " fill-opacity="1" fill-rule="nonzero"/><path fill="#ffffff" d="M 123.644531 29.082031 C 123.546875 29.085938 123.460938 29.054688 123.386719 28.988281 C 123.316406 28.929688 123.28125 28.855469 123.28125 28.761719 C 123.28125 28.667969 123.316406 28.585938 123.386719 28.527344 C 123.558594 28.382812 123.730469 28.382812 123.902344 28.527344 C 123.976562 28.585938 124.011719 28.667969 124.007812 28.761719 C 124.007812 28.855469 123.972656 28.929688 123.902344 28.988281 C 123.828125 29.054688 123.742188 29.085938 123.644531 29.082031 Z M 123.644531 29.082031 " fill-opacity="1" fill-rule="nonzero"/></svg>